<?xml version="1.0" encoding="utf-8"?>
<!-- Generator: Adobe Illustrator 16.0.4, SVG Export Plug-In . SVG Version: 6.00 Build 0)  -->
<svg version="1.2" baseProfile="tiny" id="Layer_1" xmlns="http://www.w3.org/2000/svg" xmlns:xlink="http://www.w3.org/1999/xlink"
	 x="0px" y="0px" width="305px" height="35px" viewBox="0 0 305 35" xml:space="preserve">
<g>
	<g>
		<path fill="#010101" d="M107.939,22.14c-0.457,0.558-1.154,0.836-2.09,0.836c-0.93,0-1.63-0.275-2.098-0.824
			c-0.468-0.55-0.703-1.362-0.703-2.44v-4.604h0.862v4.582c0,1.668,0.661,2.502,1.982,2.502c0.671,0,1.152-0.202,1.438-0.609
			c0.289-0.406,0.432-1.029,0.432-1.871v-4.604h0.863v4.582C108.626,20.766,108.397,21.583,107.939,22.14z"/>
		<path fill="#010101" d="M115.194,21.669c-0.114,0.266-0.282,0.495-0.503,0.686c-0.221,0.192-0.49,0.344-0.807,0.454
			c-0.317,0.111-0.679,0.166-1.084,0.166c-0.531,0-1.019-0.102-1.466-0.303c-0.446-0.203-0.825-0.46-1.134-0.77l0.575-0.643
			c0.296,0.281,0.613,0.506,0.952,0.676c0.339,0.168,0.707,0.252,1.106,0.252c0.516,0,0.924-0.116,1.223-0.354
			c0.299-0.237,0.448-0.56,0.448-0.974c0-0.177-0.029-0.339-0.089-0.486c-0.06-0.148-0.161-0.284-0.303-0.41
			c-0.145-0.125-0.334-0.25-0.571-0.371c-0.235-0.122-0.53-0.245-0.886-0.371c-0.42-0.147-0.771-0.297-1.057-0.448
			c-0.284-0.15-0.513-0.314-0.686-0.487s-0.299-0.367-0.376-0.581c-0.077-0.214-0.116-0.461-0.116-0.741
			c0-0.311,0.06-0.586,0.178-0.831c0.116-0.243,0.281-0.452,0.493-0.625c0.209-0.172,0.465-0.304,0.763-0.393
			c0.299-0.087,0.629-0.132,0.99-0.132c0.516,0,0.957,0.074,1.322,0.221c0.366,0.148,0.71,0.35,1.036,0.609l-0.554,0.675
			c-0.281-0.235-0.562-0.415-0.848-0.537c-0.283-0.122-0.622-0.182-1.013-0.182c-0.264,0-0.495,0.031-0.685,0.094
			c-0.192,0.062-0.349,0.146-0.472,0.249c-0.121,0.104-0.209,0.224-0.265,0.36s-0.083,0.282-0.083,0.438
			c0,0.162,0.021,0.308,0.066,0.438c0.044,0.13,0.133,0.255,0.265,0.375c0.133,0.123,0.321,0.242,0.56,0.36
			c0.239,0.118,0.556,0.248,0.947,0.388c0.427,0.154,0.785,0.309,1.073,0.464c0.288,0.154,0.519,0.325,0.692,0.509
			c0.173,0.184,0.296,0.388,0.371,0.609c0.073,0.221,0.111,0.477,0.111,0.763C115.365,21.119,115.31,21.404,115.194,21.669z"/>
		<path fill="#010101" d="M117.16,22.854v-7.748h4.682v0.786h-3.819v2.437h2.213v0.785h-2.213v2.955h3.984v0.786L117.16,22.854
			L117.16,22.854L117.16,22.854z"/>
		<path fill="#010101" d="M128.637,18.759c-0.333,0.368-0.774,0.612-1.329,0.729l1.705,3.366h-0.997l-1.66-3.298h-1.838v3.298
			h-0.863v-7.748h3.066c0.339,0,0.656,0.044,0.952,0.133c0.295,0.087,0.55,0.223,0.763,0.404c0.214,0.181,0.385,0.407,0.509,0.681
			c0.127,0.272,0.188,0.598,0.188,0.973C129.135,17.901,128.969,18.389,128.637,18.759z M127.866,16.25
			c-0.269-0.239-0.662-0.359-1.177-0.359h-2.17v2.878h2.058c0.577,0,1.002-0.119,1.279-0.357c0.277-0.24,0.414-0.602,0.414-1.087
			C128.271,16.848,128.137,16.489,127.866,16.25z"/>
		<path fill="#010101" d="M133.728,22.854v-7.748h4.682v0.786h-3.818v2.437h2.212v0.785h-2.212v2.955h3.983v0.786L133.728,22.854
			L133.728,22.854z"/>
		<path fill="#010101" d="M144.597,22.854l-1.186-2.026c-0.148-0.25-0.279-0.48-0.392-0.686c-0.115-0.206-0.219-0.406-0.316-0.598
			c-0.104,0.2-0.21,0.402-0.321,0.61c-0.111,0.206-0.239,0.431-0.388,0.674l-1.206,2.026h-0.953l2.413-4.03l-2.213-3.719h0.975
			l0.997,1.693c0.147,0.244,0.276,0.469,0.388,0.676c0.111,0.206,0.218,0.409,0.321,0.608c0.095-0.191,0.201-0.39,0.315-0.598
			c0.115-0.206,0.245-0.436,0.393-0.686l0.997-1.693h0.951l-2.213,3.698l2.413,4.05L144.597,22.854L144.597,22.854z"/>
		<path fill="#010101" d="M152.393,18.442c-0.129,0.3-0.307,0.55-0.537,0.754c-0.228,0.202-0.505,0.355-0.83,0.459
			c-0.322,0.103-0.68,0.154-1.062,0.154h-1.881v3.044h-0.864v-7.747h2.9c0.355,0,0.681,0.046,0.981,0.139
			c0.299,0.093,0.559,0.234,0.78,0.426c0.221,0.192,0.396,0.433,0.52,0.725c0.127,0.292,0.188,0.633,0.188,1.024
			C152.587,17.803,152.522,18.144,152.393,18.442z M151.303,16.296c-0.28-0.27-0.686-0.405-1.216-0.405h-2.004v3.132h1.893
			c1.166,0,1.748-0.524,1.748-1.571C151.725,16.95,151.583,16.564,151.303,16.296z"/>
		<path fill="#010101" d="M154.058,22.854v-7.748h4.682v0.786h-3.818v2.437h2.212v0.785h-2.212v2.955h3.984v0.786L154.058,22.854
			L154.058,22.854L154.058,22.854z"/>
		<path fill="#010101" d="M165.536,18.759c-0.332,0.368-0.774,0.612-1.328,0.729l1.705,3.366h-0.997l-1.66-3.298h-1.836v3.298
			h-0.863v-7.748h3.065c0.339,0,0.656,0.044,0.952,0.133c0.294,0.087,0.55,0.223,0.763,0.404c0.214,0.181,0.385,0.407,0.51,0.681
			c0.126,0.272,0.188,0.598,0.188,0.973C166.035,17.901,165.868,18.389,165.536,18.759z M164.767,16.25
			c-0.269-0.239-0.662-0.359-1.178-0.359h-2.17v2.878h2.059c0.576,0,1.002-0.119,1.279-0.357c0.277-0.24,0.414-0.602,0.414-1.087
			C165.17,16.848,165.037,16.489,164.767,16.25z"/>
		<path fill="#010101" d="M167.806,22.854v-7.748h0.863v7.748H167.806z"/>
		<path fill="#010101" d="M170.76,22.854v-7.748h4.681v0.786h-3.817v2.437h2.213v0.785h-2.213v2.955h3.982v0.786L170.76,22.854
			L170.76,22.854L170.76,22.854z"/>
		<path fill="#010101" d="M182.027,22.854l-3.376-5.302c-0.044-0.065-0.094-0.145-0.145-0.237c-0.052-0.093-0.103-0.184-0.154-0.277
			c-0.051-0.092-0.101-0.18-0.148-0.261c-0.049-0.08-0.083-0.147-0.106-0.199v0.531v5.745h-0.841v-7.748h0.841l3.355,5.401
			c0.044,0.066,0.093,0.147,0.145,0.239c0.051,0.092,0.103,0.184,0.155,0.277c0.051,0.092,0.1,0.179,0.148,0.26
			c0.048,0.082,0.083,0.148,0.106,0.199v-0.53v-5.844h0.841v7.747H182.027L182.027,22.854z"/>
		<path fill="#010101" d="M189.156,22.621c-0.421,0.237-0.916,0.355-1.484,0.355c-0.474,0-0.902-0.102-1.291-0.304
			c-0.387-0.203-0.718-0.481-0.99-0.835c-0.273-0.355-0.484-0.775-0.632-1.262c-0.147-0.487-0.22-1.015-0.22-1.583
			c0-0.576,0.078-1.108,0.232-1.599c0.154-0.49,0.371-0.913,0.649-1.267c0.277-0.355,0.61-0.633,1.002-0.836
			c0.389-0.203,0.818-0.303,1.283-0.303c1.046,0,1.869,0.412,2.469,1.24l-0.687,0.52c-0.251-0.339-0.509-0.586-0.773-0.742
			c-0.267-0.154-0.609-0.233-1.031-0.233c-0.333,0-0.637,0.08-0.918,0.238c-0.281,0.158-0.52,0.378-0.72,0.658
			s-0.356,0.616-0.47,1.007c-0.114,0.392-0.171,0.823-0.171,1.295c0,0.472,0.057,0.906,0.171,1.3
			c0.112,0.394,0.275,0.734,0.481,1.018c0.206,0.285,0.451,0.505,0.73,0.665c0.281,0.158,0.581,0.237,0.908,0.237
			c0.422,0,0.783-0.088,1.085-0.266c0.302-0.177,0.579-0.428,0.829-0.753l0.598,0.52C189.926,22.075,189.575,22.385,189.156,22.621z
			"/>
		<path fill="#010101" d="M191.822,22.854v-7.748h4.682v0.786h-3.818v2.437h2.212v0.785h-2.212v2.955h3.983v0.786L191.822,22.854
			L191.822,22.854z"/>
		<path fill="#010101" d="M206.493,20.722c-0.188,0.499-0.448,0.907-0.78,1.224c-0.332,0.317-0.723,0.547-1.173,0.691
			c-0.45,0.144-0.934,0.217-1.45,0.217h-1.893v-7.747h2.047c0.51,0,0.98,0.074,1.413,0.221c0.432,0.146,0.805,0.378,1.117,0.691
			c0.314,0.315,0.561,0.71,0.738,1.19c0.178,0.479,0.267,1.052,0.267,1.715C206.775,19.625,206.681,20.225,206.493,20.722z
			 M205.214,16.678c-0.465-0.524-1.144-0.787-2.036-0.787h-1.119v6.176h1.141c0.419,0,0.797-0.057,1.127-0.171
			c0.333-0.113,0.616-0.297,0.853-0.546c0.234-0.251,0.417-0.574,0.542-0.969c0.126-0.394,0.188-0.869,0.188-1.421
			C205.912,17.962,205.679,17.202,205.214,16.678z"/>
		<path fill="#010101" d="M208.479,22.854v-7.748h4.682v0.786h-3.818v2.437h2.213v0.785h-2.213v2.955h3.984v0.786L208.479,22.854
			L208.479,22.854L208.479,22.854z"/>
		<path fill="#010101" d="M219.431,21.669c-0.114,0.266-0.283,0.495-0.503,0.686c-0.222,0.192-0.493,0.344-0.81,0.454
			c-0.315,0.111-0.679,0.166-1.084,0.166c-0.529,0-1.019-0.102-1.465-0.303c-0.447-0.203-0.824-0.46-1.135-0.77l0.576-0.643
			c0.295,0.281,0.612,0.506,0.95,0.676c0.339,0.168,0.708,0.252,1.107,0.252c0.516,0,0.925-0.116,1.223-0.354
			c0.298-0.237,0.448-0.56,0.448-0.974c0-0.177-0.029-0.339-0.088-0.486c-0.061-0.148-0.162-0.284-0.304-0.41
			c-0.144-0.125-0.334-0.25-0.57-0.371c-0.237-0.122-0.531-0.245-0.886-0.371c-0.421-0.147-0.771-0.297-1.057-0.448
			c-0.283-0.15-0.511-0.314-0.685-0.487s-0.3-0.367-0.376-0.581c-0.078-0.214-0.116-0.461-0.116-0.741
			c0-0.311,0.06-0.586,0.178-0.831c0.117-0.243,0.283-0.452,0.493-0.625c0.21-0.172,0.465-0.304,0.764-0.393
			c0.298-0.087,0.628-0.132,0.991-0.132c0.517,0,0.956,0.074,1.322,0.221c0.366,0.148,0.71,0.35,1.036,0.609l-0.554,0.675
			c-0.281-0.235-0.562-0.415-0.848-0.537c-0.283-0.122-0.621-0.182-1.012-0.182c-0.267,0-0.495,0.031-0.686,0.094
			c-0.191,0.062-0.349,0.146-0.47,0.249c-0.122,0.104-0.21,0.224-0.267,0.36c-0.055,0.136-0.082,0.282-0.082,0.438
			c0,0.162,0.023,0.308,0.066,0.438s0.132,0.255,0.265,0.375c0.133,0.123,0.32,0.242,0.56,0.36c0.239,0.118,0.555,0.248,0.945,0.388
			c0.428,0.154,0.787,0.309,1.074,0.464c0.287,0.154,0.518,0.325,0.692,0.509c0.172,0.184,0.297,0.388,0.371,0.609
			c0.074,0.221,0.111,0.477,0.111,0.763C219.603,21.119,219.545,21.404,219.431,21.669z"/>
		<path fill="#010101" d="M221.45,22.854v-7.748h0.865v7.748H221.45z"/>
		<path fill="#010101" d="M229.856,21.17c-0.146,0.4-0.345,0.737-0.603,1.004c-0.259,0.27-0.564,0.469-0.913,0.602
			c-0.351,0.132-0.729,0.199-1.135,0.199c-0.473,0-0.902-0.101-1.29-0.303c-0.388-0.203-0.718-0.482-0.991-0.836
			c-0.272-0.355-0.484-0.774-0.632-1.262c-0.148-0.486-0.221-1.015-0.221-1.582c0-0.576,0.079-1.109,0.233-1.599
			c0.155-0.492,0.371-0.913,0.647-1.267c0.278-0.355,0.611-0.634,1.002-0.837c0.391-0.202,0.819-0.303,1.284-0.303
			c1.047,0,1.871,0.413,2.468,1.24l-0.686,0.52c-0.25-0.338-0.508-0.586-0.774-0.741c-0.267-0.156-0.607-0.233-1.03-0.233
			c-0.332,0-0.636,0.08-0.917,0.238c-0.281,0.158-0.52,0.378-0.72,0.658s-0.356,0.615-0.47,1.007
			c-0.114,0.391-0.171,0.822-0.171,1.294c0,0.473,0.058,0.906,0.178,1.301c0.116,0.393,0.277,0.733,0.48,1.017
			c0.203,0.284,0.444,0.506,0.725,0.665c0.281,0.159,0.581,0.238,0.908,0.238c0.65,0,1.146-0.196,1.489-0.588
			c0.342-0.39,0.514-0.965,0.514-1.725V19.81h-1.396v-0.786h2.235v0.75C230.072,20.305,230,20.77,229.856,21.17z"/>
		<path fill="#010101" d="M236.469,22.854l-3.376-5.302c-0.043-0.065-0.093-0.145-0.144-0.237c-0.052-0.093-0.103-0.184-0.154-0.277
			c-0.052-0.092-0.101-0.18-0.15-0.261c-0.046-0.08-0.082-0.147-0.104-0.199v0.531v5.745H231.7v-7.748h0.841l3.354,5.401
			c0.042,0.066,0.092,0.147,0.144,0.239c0.05,0.092,0.104,0.184,0.154,0.277c0.053,0.092,0.101,0.179,0.149,0.26
			c0.047,0.082,0.083,0.148,0.105,0.199v-0.53v-5.844h0.841v7.747H236.469L236.469,22.854z"/>
		<path fill="#010101" d="M241.737,19.213v-0.809h2.437v0.809H241.737z"/>
		<path fill="#010101" d="M253.807,18.442c-0.129,0.3-0.308,0.55-0.536,0.754c-0.229,0.202-0.506,0.355-0.831,0.459
			c-0.323,0.103-0.678,0.154-1.063,0.154h-1.881v3.044h-0.862v-7.747h2.9c0.353,0,0.68,0.046,0.98,0.139
			c0.299,0.093,0.558,0.234,0.78,0.426c0.221,0.192,0.393,0.433,0.521,0.725c0.125,0.292,0.186,0.633,0.186,1.024
			C254,17.803,253.937,18.144,253.807,18.442z M252.717,16.296c-0.281-0.27-0.685-0.405-1.218-0.405h-2.004v3.132h1.893
			c1.166,0,1.749-0.524,1.749-1.571C253.138,16.95,252.998,16.564,252.717,16.296z"/>
		<path fill="#010101" d="M260.454,18.759c-0.333,0.368-0.774,0.612-1.328,0.729l1.704,3.366h-0.996l-1.66-3.298h-1.837v3.298
			h-0.863v-7.748h3.066c0.339,0,0.656,0.044,0.952,0.133c0.294,0.087,0.549,0.223,0.763,0.404c0.213,0.181,0.384,0.407,0.509,0.681
			c0.125,0.272,0.188,0.598,0.188,0.973C260.95,17.901,260.786,18.389,260.454,18.759z M259.684,16.25
			c-0.27-0.239-0.662-0.359-1.18-0.359h-2.168v2.878h2.059c0.575,0,1-0.119,1.277-0.357c0.277-0.24,0.416-0.602,0.416-1.087
			C260.088,16.848,259.953,16.489,259.684,16.25z"/>
		<path fill="#010101" d="M268.378,20.58c-0.156,0.49-0.374,0.912-0.659,1.267c-0.283,0.354-0.625,0.63-1.023,0.829
			c-0.398,0.2-0.837,0.299-1.318,0.299c-0.479,0-0.916-0.097-1.31-0.292c-0.395-0.197-0.733-0.471-1.015-0.825
			c-0.28-0.354-0.494-0.773-0.646-1.261c-0.151-0.487-0.226-1.022-0.226-1.604s0.076-1.12,0.231-1.611
			c0.155-0.49,0.373-0.912,0.653-1.267c0.28-0.354,0.62-0.631,1.018-0.83c0.398-0.2,0.838-0.299,1.317-0.299
			c0.479,0,0.915,0.097,1.311,0.293c0.395,0.195,0.732,0.47,1.012,0.824c0.281,0.354,0.499,0.775,0.653,1.262
			c0.155,0.486,0.233,1.021,0.233,1.604C268.609,19.551,268.532,20.088,268.378,20.58z M267.564,17.668
			c-0.123-0.395-0.289-0.735-0.504-1.018c-0.214-0.284-0.464-0.502-0.751-0.653c-0.289-0.15-0.603-0.227-0.941-0.227
			c-0.333,0-0.641,0.076-0.925,0.227c-0.286,0.151-0.53,0.366-0.736,0.643c-0.207,0.277-0.37,0.613-0.488,1.006
			c-0.118,0.396-0.177,0.836-0.177,1.324c0,0.486,0.061,0.928,0.183,1.322c0.122,0.395,0.289,0.735,0.498,1.019
			c0.211,0.283,0.46,0.501,0.749,0.652c0.285,0.151,0.6,0.227,0.94,0.227c0.332,0,0.642-0.075,0.929-0.227
			c0.287-0.151,0.534-0.366,0.741-0.643c0.205-0.276,0.37-0.612,0.486-1.007c0.118-0.395,0.179-0.835,0.179-1.322
			C267.747,18.504,267.686,18.063,267.564,17.668z"/>
		<path fill="#010101" d="M275.609,20.722c-0.187,0.499-0.448,0.907-0.78,1.224c-0.332,0.317-0.723,0.547-1.173,0.691
			c-0.45,0.144-0.932,0.217-1.448,0.217h-1.894v-7.747h2.048c0.509,0,0.979,0.074,1.412,0.221c0.431,0.146,0.805,0.378,1.118,0.691
			c0.313,0.315,0.561,0.71,0.736,1.19c0.178,0.479,0.266,1.052,0.266,1.715C275.893,19.625,275.798,20.225,275.609,20.722z
			 M274.332,16.678c-0.464-0.524-1.144-0.787-2.037-0.787h-1.117v6.176h1.138c0.421,0,0.797-0.057,1.129-0.171
			c0.332-0.113,0.617-0.297,0.852-0.546c0.237-0.251,0.417-0.574,0.544-0.969c0.125-0.394,0.187-0.869,0.187-1.421
			C275.029,17.962,274.796,17.202,274.332,16.678z"/>
		<path fill="#010101" d="M282.434,22.14c-0.458,0.558-1.154,0.836-2.091,0.836c-0.93,0-1.629-0.275-2.097-0.824
			c-0.469-0.55-0.702-1.362-0.702-2.44v-4.604h0.862v4.582c0,1.668,0.661,2.502,1.981,2.502c0.672,0,1.152-0.202,1.439-0.609
			c0.287-0.406,0.431-1.029,0.431-1.871v-4.604h0.864v4.582C283.12,20.766,282.891,21.583,282.434,22.14z"/>
		<path fill="#010101" d="M289.384,22.621c-0.421,0.237-0.915,0.355-1.483,0.355c-0.474,0-0.902-0.102-1.29-0.304
			c-0.387-0.203-0.718-0.481-0.99-0.835c-0.274-0.355-0.484-0.775-0.633-1.262c-0.147-0.487-0.22-1.015-0.22-1.583
			c0-0.576,0.076-1.108,0.231-1.599c0.155-0.49,0.372-0.913,0.649-1.267c0.276-0.355,0.609-0.633,1.002-0.836
			c0.39-0.203,0.819-0.303,1.282-0.303c1.048,0,1.87,0.412,2.469,1.24l-0.686,0.52c-0.251-0.339-0.509-0.586-0.773-0.742
			c-0.268-0.154-0.609-0.233-1.031-0.233c-0.332,0-0.638,0.08-0.917,0.238c-0.281,0.158-0.521,0.378-0.722,0.658
			c-0.198,0.28-0.354,0.616-0.469,1.007c-0.114,0.392-0.172,0.823-0.172,1.295c0,0.472,0.058,0.906,0.172,1.3
			c0.112,0.394,0.273,0.734,0.479,1.018c0.207,0.285,0.45,0.505,0.731,0.665c0.281,0.158,0.581,0.237,0.908,0.237
			c0.421,0,0.782-0.088,1.083-0.266c0.305-0.177,0.581-0.428,0.831-0.753l0.6,0.52C290.155,22.075,289.804,22.385,289.384,22.621z"
			/>
		<path fill="#010101" d="M294.585,15.891v6.963h-0.863v-6.963h-2.278v-0.785h5.422v0.785H294.585L294.585,15.891z"/>
		<path fill="#010101" d="M302.782,21.669c-0.114,0.266-0.283,0.495-0.503,0.686c-0.222,0.192-0.492,0.344-0.808,0.454
			c-0.315,0.111-0.68,0.166-1.085,0.166c-0.529,0-1.019-0.102-1.465-0.303c-0.447-0.203-0.825-0.46-1.137-0.77l0.577-0.643
			c0.295,0.281,0.612,0.506,0.951,0.676c0.339,0.168,0.707,0.252,1.105,0.252c0.518,0,0.925-0.116,1.225-0.354
			c0.298-0.237,0.448-0.56,0.448-0.974c0-0.177-0.03-0.339-0.09-0.486c-0.06-0.148-0.161-0.284-0.304-0.41
			c-0.143-0.125-0.334-0.25-0.569-0.371c-0.236-0.122-0.531-0.245-0.886-0.371c-0.421-0.147-0.772-0.297-1.058-0.448
			c-0.284-0.15-0.512-0.314-0.685-0.487s-0.3-0.367-0.376-0.581c-0.079-0.214-0.116-0.461-0.116-0.741
			c0-0.311,0.06-0.586,0.178-0.831c0.117-0.243,0.282-0.452,0.493-0.625c0.21-0.172,0.464-0.304,0.763-0.393
			c0.3-0.087,0.629-0.132,0.991-0.132c0.517,0,0.957,0.074,1.322,0.221c0.366,0.148,0.711,0.35,1.035,0.609l-0.554,0.675
			c-0.28-0.235-0.562-0.415-0.847-0.537s-0.621-0.182-1.013-0.182c-0.267,0-0.494,0.031-0.686,0.094
			c-0.192,0.062-0.349,0.146-0.471,0.249c-0.121,0.104-0.21,0.224-0.267,0.36c-0.055,0.136-0.082,0.282-0.082,0.438
			c0,0.162,0.022,0.308,0.066,0.438s0.133,0.255,0.266,0.375c0.133,0.123,0.32,0.242,0.559,0.36c0.24,0.118,0.556,0.248,0.946,0.388
			c0.428,0.154,0.786,0.309,1.074,0.464c0.286,0.154,0.519,0.325,0.692,0.509c0.173,0.184,0.296,0.388,0.37,0.609
			c0.073,0.221,0.111,0.477,0.111,0.763C302.954,21.119,302.895,21.404,302.782,21.669z"/>
	</g>
	<g id="logo_1_">
		<g id="white_1_">
			<path fill="#FFFFFF" d="M23.462,23.267c-0.49-0.112-1.012-0.184-1.537-0.184c-0.9,0-1.721,0.154-2.324,0.407
				c-0.066,0.033-0.115,0.104-0.115,0.182c0,0.029,0.008,0.059,0.02,0.084c0.07,0.206-0.047,0.431-0.632,0.56
				c-0.866,0.19-1.414,1.085-1.728,1.383c-0.367,0.349-1.407,0.564-1.25,0.355c0.122-0.162,0.59-0.67,0.874-1.219
				c0.255-0.491,0.481-0.631,0.794-1.099c0.091-0.136,0.445-0.618,0.549-1.001c0.116-0.372,0.076-0.841,0.121-1.032
				c0.064-0.278,0.326-0.879,0.346-1.22c0.012-0.193-0.803,0.274-1.189,0.274s-0.763-0.232-1.107-0.249
				c-0.428-0.02-0.702,0.33-1.089,0.269c-0.22-0.035-0.406-0.23-0.792-0.244c-0.549-0.021-1.22,0.306-2.48,0.265
				c-1.24-0.041-2.385-1.567-2.541-1.811c-0.184-0.283-0.408-0.283-0.65-0.061c-0.245,0.224-0.545,0.048-0.631-0.103
				c-0.162-0.283-0.598-1.115-1.271-1.29c-0.931-0.241-1.402,0.517-1.342,1.118c0.062,0.611,0.457,0.783,0.641,1.107
				c0.184,0.326,0.277,0.535,0.621,0.68c0.244,0.102,0.335,0.252,0.262,0.453c-0.062,0.174-0.317,0.214-0.484,0.223
				c-0.354,0.017-0.604-0.08-0.784-0.195c-0.211-0.137-0.383-0.322-0.567-0.639c-0.213-0.351-0.549-0.503-0.939-0.503
				c-0.186,0-0.36,0.049-0.516,0.129c-0.612,0.319-1.341,0.507-2.127,0.507l-0.885,0.001c1.697,5.035,6.459,8.662,12.067,8.662
				C17.253,29.078,21.194,26.764,23.462,23.267z"/>
		</g>
		<g id="black_1_">
			<g>
				<path fill="#010101" d="M25.377,22.587h0.114l0.174,0.283h0.111l-0.188-0.289c0.097-0.012,0.171-0.062,0.171-0.18
					c0-0.131-0.077-0.188-0.232-0.188h-0.25v0.656h0.1V22.587z M25.377,22.503v-0.204h0.136c0.068,0,0.143,0.016,0.143,0.097
					c0,0.101-0.074,0.107-0.159,0.107H25.377z"/>
				<path fill="#010101" d="M26.138,22.544c0,0.354-0.288,0.643-0.643,0.643c-0.355,0-0.645-0.289-0.645-0.643
					c0-0.355,0.289-0.644,0.645-0.644C25.85,21.9,26.138,22.188,26.138,22.544z M25.496,22.014c-0.293,0-0.53,0.236-0.53,0.53
					c0,0.292,0.237,0.528,0.53,0.528c0.291,0,0.528-0.236,0.528-0.528C26.025,22.252,25.787,22.014,25.496,22.014z"/>
			</g>
			<g>
				<path fill="#010101" d="M23.462,23.267c-0.49-0.112-1.012-0.184-1.537-0.184c-0.9,0-1.721,0.155-2.324,0.407
					c-0.066,0.034-0.115,0.104-0.115,0.183c0,0.028,0.008,0.059,0.02,0.083c0.07,0.207-0.047,0.432-0.632,0.561
					c-0.866,0.189-1.414,1.084-1.728,1.383c-0.367,0.348-1.407,0.564-1.25,0.355c0.122-0.163,0.59-0.67,0.874-1.22
					c0.255-0.489,0.481-0.63,0.794-1.098c0.091-0.137,0.445-0.619,0.549-1.001c0.116-0.373,0.076-0.84,0.121-1.033
					c0.064-0.277,0.326-0.879,0.346-1.22c0.012-0.192-0.803,0.274-1.189,0.274s-0.763-0.231-1.107-0.248
					c-0.428-0.021-0.702,0.329-1.089,0.268c-0.22-0.035-0.406-0.229-0.792-0.243c-0.549-0.021-1.22,0.305-2.48,0.264
					c-1.24-0.039-2.385-1.565-2.541-1.809c-0.184-0.285-0.408-0.285-0.65-0.062c-0.245,0.224-0.545,0.049-0.631-0.102
					c-0.162-0.284-0.598-1.116-1.271-1.29c-0.931-0.242-1.402,0.515-1.342,1.117c0.062,0.611,0.457,0.782,0.641,1.107
					c0.184,0.326,0.277,0.536,0.621,0.681c0.244,0.101,0.335,0.251,0.262,0.452c-0.062,0.174-0.317,0.215-0.484,0.223
					c-0.354,0.017-0.604-0.08-0.784-0.196c-0.211-0.135-0.383-0.32-0.567-0.638c-0.213-0.35-0.549-0.503-0.939-0.503
					c-0.186,0-0.36,0.05-0.516,0.13c-0.612,0.318-1.341,0.507-2.127,0.507H0.707c-0.431-1.277-0.664-2.646-0.664-4.069
					c0-7.031,5.7-12.732,12.732-12.732c7.031,0,12.73,5.7,12.73,12.732C25.505,18.898,24.755,21.274,23.462,23.267z"/>
			</g>
			<path fill="#010101" d="M31.996,17.149c0-1.167-0.023-2.025-0.071-2.802h1.909l0.082,1.656h0.062
				c0.43-1.229,1.447-1.854,2.389-1.854c0.215,0,0.34,0.008,0.518,0.047v2.078c-0.207-0.04-0.4-0.063-0.665-0.063
				c-1.051,0-1.78,0.669-1.978,1.669c-0.037,0.194-0.057,0.428-0.057,0.665v4.523h-2.207L31.996,17.149z"/>
			<path fill="#010101" d="M39.546,19.302c0.058,1.579,1.281,2.271,2.693,2.271c1.014,0,1.74-0.158,2.407-0.404l0.327,1.518
				c-0.746,0.316-1.783,0.553-3.049,0.553c-2.832,0-4.491-1.748-4.491-4.421c0-2.407,1.46-4.686,4.266-4.686
				c2.837,0,3.759,2.332,3.759,4.242c0,0.409-0.036,0.738-0.078,0.941L39.546,19.302z M43.382,17.765
				c0.01-0.809-0.342-2.125-1.819-2.125c-1.358,0-1.923,1.231-2.022,2.125H43.382z"/>
			<path fill="#010101" d="M52.757,19.287c0,0.231-0.018,0.446-0.068,0.644c-0.221,0.953-1.002,1.569-1.903,1.569
				c-1.389,0-2.184-1.171-2.184-2.773c0-1.618,0.788-2.871,2.208-2.871c0.992,0,1.702,0.699,1.896,1.549
				c0.039,0.179,0.051,0.398,0.051,0.575V19.287z M54.96,10.988l-2.204-0.622v4.919H52.72c-0.392-0.644-1.25-1.136-2.445-1.136
				c-2.098,0-3.923,1.736-3.91,4.658c0,2.681,1.65,4.457,3.732,4.457c1.259,0,2.312-0.6,2.832-1.576h0.04l0.099,1.381h1.965
				c-0.039-0.593-0.072-1.554-0.072-2.446V10.988L54.96,10.988z"/>
			<path fill="#010101" d="M60.792,14.14c-0.664,0-1.258,0.191-1.758,0.501c-0.52,0.304-0.941,0.772-1.194,1.258h-0.034v-4.082
				l-0.863-0.255v11.508h0.863V17.73c0-0.354,0.027-0.601,0.117-0.859c0.375-1.086,1.397-1.978,2.635-1.978
				c1.786,0,2.405,1.434,2.405,3.006v5.17h0.862v-5.266C63.826,14.553,61.621,14.14,60.792,14.14z"/>
			<path fill="#010101" d="M71.574,20.996c0,0.689,0.027,1.404,0.127,2.073h-0.795l-0.127-1.25h-0.041
				c-0.423,0.672-1.395,1.449-2.783,1.449c-1.756,0-2.572-1.235-2.572-2.399c0-2.015,1.777-3.229,5.328-3.191v-0.232
				c0-0.863-0.168-2.587-2.232-2.573c-0.764,0-1.561,0.204-2.191,0.65l-0.274-0.628c0.798-0.54,1.772-0.754,2.561-0.754
				c2.52,0,3.001,1.891,3.001,3.451V20.996L71.574,20.996z M70.71,18.403c-1.9-0.055-4.411,0.232-4.411,2.33
				c0,1.254,0.827,1.818,1.737,1.818c1.455,0,2.283-0.901,2.584-1.751c0.062-0.186,0.09-0.374,0.09-0.522V18.403L70.71,18.403z"/>
			<path fill="#010101" d="M75.011,12.415v1.924H77.5v0.7h-2.488v5.674c0,1.11,0.345,1.806,1.282,1.806
				c0.45,0,0.769-0.06,0.991-0.137l0.104,0.668c-0.282,0.118-0.679,0.21-1.204,0.21c-0.638,0-1.166-0.2-1.507-0.619
				c-0.396-0.457-0.53-1.19-0.53-2.081v-5.521h-1.474v-0.7h1.474v-1.605L75.011,12.415z"/>
			<g>
				<path fill="#010101" d="M78.59,22.604h0.114l0.174,0.283h0.111l-0.188-0.29c0.098-0.011,0.172-0.062,0.172-0.18
					c0-0.13-0.079-0.187-0.233-0.187h-0.249v0.656h0.1L78.59,22.604L78.59,22.604z M78.59,22.52v-0.203h0.136
					c0.068,0,0.143,0.016,0.143,0.097c0,0.101-0.074,0.106-0.16,0.106H78.59z"/>
				<path fill="#010101" d="M79.351,22.561c0,0.354-0.289,0.644-0.643,0.644c-0.354,0-0.645-0.289-0.645-0.644
					c0-0.355,0.29-0.644,0.645-0.644C79.062,21.917,79.351,22.205,79.351,22.561z M78.708,22.031c-0.295,0-0.529,0.236-0.529,0.529
					c0,0.292,0.234,0.528,0.529,0.528c0.291,0,0.528-0.236,0.528-0.528S79,22.031,78.708,22.031z"/>
			</g>
			<path fill="#010101" d="M15.579,22.1c0.065,0.063,0.179,0.279,0.04,0.552c-0.077,0.145-0.16,0.246-0.31,0.364
				c-0.179,0.145-0.528,0.31-1.009,0.006c-0.258-0.165-0.273-0.219-0.631-0.173c-0.254,0.033-0.355-0.224-0.265-0.438
				c0.093-0.212,0.468-0.385,0.937-0.111c0.21,0.124,0.537,0.386,0.825,0.153c0.118-0.095,0.19-0.158,0.355-0.35
				c0.007-0.008,0.018-0.013,0.029-0.013C15.562,22.09,15.572,22.094,15.579,22.1z"/>
		</g>
		<path id="red_1_" fill="#CB2026" d="M11.784,9.677c-1.471,0.106-1.624,0.266-1.898,0.559c-0.39,0.414-0.9-0.537-0.9-0.537
			c-0.308-0.064-0.68-0.56-0.479-1.021C8.705,8.22,9.07,8.357,9.183,8.499c0.141,0.173,0.438,0.457,0.824,0.446
			c0.386-0.009,0.831-0.091,1.452-0.091c0.629,0,1.052,0.235,1.076,0.438C12.556,9.464,12.484,9.627,11.784,9.677z M13.33,7.247
			c-0.004,0-0.006,0.001-0.008,0.001c-0.023,0-0.041-0.019-0.041-0.04c0-0.015,0.01-0.028,0.023-0.034
			c0.285-0.15,0.711-0.271,1.197-0.32c0.146-0.015,0.289-0.023,0.427-0.023c0.024,0,0.048,0,0.072,0
			c0.816,0.019,1.47,0.343,1.46,0.725s-0.68,0.676-1.495,0.658c-0.265-0.007-0.512-0.045-0.726-0.106
			c-0.024-0.007-0.043-0.027-0.043-0.054c0-0.025,0.019-0.047,0.043-0.055c0.51-0.117,0.854-0.311,0.829-0.491
			c-0.032-0.241-0.698-0.373-1.487-0.293C13.494,7.223,13.41,7.234,13.33,7.247z M19.958,12.959
			c-0.125,0.424-0.305,0.964-1.101,1.372c-0.116,0.06-0.161-0.038-0.106-0.13c0.301-0.512,0.354-0.639,0.441-0.842
			c0.123-0.295,0.187-0.714-0.057-1.591c-0.479-1.723-1.478-4.026-2.204-4.772c-0.7-0.722-1.97-0.924-3.117-0.631
			c-0.423,0.109-1.249,0.539-2.783,0.193c-2.653-0.598-3.046,0.73-3.198,1.311c-0.152,0.578-0.52,2.224-0.52,2.224
			c-0.121,0.67-0.28,1.835,3.84,2.62c1.92,0.366,2.018,0.861,2.102,1.219c0.152,0.64,0.396,1.005,0.671,1.188s0,0.334-0.304,0.366
			c-0.818,0.085-3.84-0.782-5.627-1.799c-1.463-0.893-1.486-1.698-1.152-2.38c-2.209-0.239-3.867,0.206-4.167,1.252
			c-0.516,1.796,3.946,4.861,9.026,6.4c5.332,1.613,10.816,0.487,11.426-2.864C23.404,14.573,22.122,13.447,19.958,12.959z"/>
	</g>
	<rect x="90.207" y="0.189" width="0.43" height="34.621"/>
</g>
</svg>
